<svg xmlns="http://www.w3.org/2000/svg" class="desktop" width="100%" height="100%" viewBox="0 0 51 61"><path d="M38.99 19.15L42.5 19.15C46.461 19.15 49.72 22.409 49.72 26.37L49.72 39.22C49.715 43.177 46.457 46.43 42.5 46.43L38.99 46.43" style="fill:none;stroke-width:2px;stroke:black"/><path d="M38.98 7.09C38.98 5.661 37.819 4.5 36.39 4.5L6.65 4.5C5.221 4.5 4.06 5.661 4.06 7.09L4.06 56.58C4.06 58.009 5.221 59.17 6.65 59.17L36.39 59.17C37.819 59.17 38.98 58.009 38.98 56.58L38.98 7.09Z" style="fill:black;stroke-width:1px;stroke:black;mix-blend-mode:overlay;"/><path d="M38.98 7.44C38.98 6.011 37.819 4.85 36.39 4.85L6.65 4.85C5.221 4.85 4.06 6.011 4.06 7.44L4.06 56.58C4.06 58.009 5.221 59.17 6.65 59.17L36.39 59.17C37.819 59.17 38.98 58.009 38.98 56.58L38.98 7.44Z" style="fill:none;stroke-width:2px;stroke:black"/><path d="M14.21 19.14L14.21 45.66" style="fill:none;stroke-width:3px;stroke:white"/><path d="M21.48 19.14L21.48 45.66" style="fill:none;stroke-width:4px;stroke:white"/><path d="M29.3 19.14L29.3 45.66" style="fill:none;stroke-width:3px;stroke:white"/><path d="M5.83 12.69C3.038 12.196 0.984 9.745 0.984 6.91 0.984 3.699 3.619 1.053 6.83 1.04 8.814 1.007 10.678 2.013 11.74 3.69" style="fill:none;stroke-width:2px;stroke:black"/><path d="M11.74 3.69C12.819 2.011 14.682 0.994 16.678 0.994 18.528 0.994 20.273 1.868 21.38 3.35" style="fill:none;stroke-width:2px;stroke:black"/><path d="M21.35 3.38C22.505 1.91 24.261 1.036 26.13 1 28.003 1 29.773 1.869 30.92 3.35" style="fill:none;stroke-width:2px;stroke:black"/><path d="M30.91 3.35C32.009 1.86 33.759 0.985 35.61 1 35.617 1 35.625 1 35.632 1 38.853 1 41.502 3.65 41.502 6.87 41.502 9.439 39.816 11.724 37.36 12.48" style="fill:none;stroke-width:2px;stroke:black"/><circle cx="6.88" cy="6.89" r="5.05" fill="white"/><circle cx="16.76" cy="6.89" r="5.05" fill="white"/><circle cx="26.24" cy="6.89" r="5.05" fill="white"/><circle cx="35.65" cy="6.89" r="5.05" fill="white"/></svg>
