<svg xmlns="http://www.w3.org/2000/svg" width="648.81" height="175.6" viewBox="0 0 648.81 175.6"><defs><style>.cls-1{isolation:isolate;}.cls-2{mix-blend-mode:overlay;}.cls-3,.cls-4{fill:none;stroke:#000;stroke-miterlimit:10;stroke-width:2px;}.cls-4{stroke-dasharray:8.08 8.08;}</style></defs><title>border-top-dash</title><g class="cls-1"><g id="Layer_1" data-name="Layer 1"><g class="cls-2"><line class="cls-3" x1="188.31" y1="174.6" x2="184.31" y2="174.6"/><path class="cls-4" d="M336.42,216.24H164.61a3.43,3.43,0,0,1-3.42-3.43V46.06a3.42,3.42,0,0,1,3.42-3.42H408.84" transform="translate(-160.19 -41.64)"/><line class="cls-3" x1="252.69" y1="1" x2="256.69" y2="1"/></g><g class="cls-2"><line class="cls-3" x1="460.5" y1="174.6" x2="464.5" y2="174.6"/><path class="cls-4" d="M632.76,216.24H804.58a3.42,3.42,0,0,0,3.42-3.43V46.06a3.42,3.42,0,0,0-3.42-3.42H560.35" transform="translate(-160.19 -41.64)"/><line class="cls-3" x1="396.13" y1="1" x2="392.13" y2="1"/></g></g></g></svg>