<svg xmlns="http://www.w3.org/2000/svg" width="648.81" height="175.6" viewBox="0 0 648.81 175.6"><title>border-top</title><g style="isolation:isolate"><g id="Layer_1" data-name="Layer 1"><path d="M351.53,191.07H174.21a3,3,0,0,1-3-3V40.6a3,3,0,0,1,3-3H412.66" transform="translate(-160.19 -26.49)" style="fill:none;stroke:#000;stroke-linecap:round;stroke-miterlimit:10;stroke-width:2px"/><g style="mix-blend-mode:overlay"><line x1="188.31" y1="174.6" x2="184.31" y2="174.6" style="fill:none;stroke:#000;stroke-miterlimit:10;stroke-width:2px"/><path d="M336.42,201.09H164.61a3.43,3.43,0,0,1-3.42-3.43V30.91a3.42,3.42,0,0,1,3.42-3.42H408.84" transform="translate(-160.19 -26.49)" style="fill:none;stroke:#000;stroke-miterlimit:10;stroke-width:2px;stroke-dasharray:8.075240135192871,8.075240135192871"/><line x1="252.69" y1="1" x2="256.69" y2="1" style="fill:none;stroke:#000;stroke-miterlimit:10;stroke-width:2px"/></g><path d="M617.66,191.07H795a3,3,0,0,0,3-3V40.6a3,3,0,0,0-3-3H556.53" transform="translate(-160.19 -26.49)" style="fill:none;stroke:#000;stroke-linecap:round;stroke-miterlimit:10;stroke-width:2px"/><g style="mix-blend-mode:overlay"><line x1="460.5" y1="174.6" x2="464.5" y2="174.6" style="fill:none;stroke:#000;stroke-miterlimit:10;stroke-width:2px"/><path d="M632.76,201.09H804.58a3.42,3.42,0,0,0,3.42-3.43V30.91a3.42,3.42,0,0,0-3.42-3.42H560.35" transform="translate(-160.19 -26.49)" style="fill:none;stroke:#000;stroke-miterlimit:10;stroke-width:2px;stroke-dasharray:8.075240135192871,8.075240135192871"/><line x1="396.13" y1="1" x2="392.13" y2="1" style="fill:none;stroke:#000;stroke-miterlimit:10;stroke-width:2px"/></g></g></g></svg>