<?xml version="1.0" standalone="no"?>
<!DOCTYPE svg PUBLIC "-//W3C//DTD SVG 1.1//EN" "http://www.w3.org/Graphics/SVG/1.1/DTD/svg11.dtd">
<svg width="100%" height="100%" viewBox="0 0 649 176" version="1.1" xmlns="http://www.w3.org/2000/svg" xmlns:xlink="http://www.w3.org/1999/xlink" xml:space="preserve" style="fill-rule:evenodd;clip-rule:evenodd;stroke-linecap:round;stroke-miterlimit:1.41421;">
    <g id="Layer_1">
        <path d="M191.34,164.58L14.02,164.58C12.374,164.58 11.02,163.226 11.02,161.58L11.02,14.11C11.02,12.464 12.374,11.11 14.02,11.11L252.47,11.11" style="fill:none;stroke-width:2px;stroke:black;"/>
        <g>
            <path d="M188.31,174.6L184.31,174.6" style="fill:none;stroke-width:2px;stroke-linecap:butt;stroke:black;"/>
            <path d="M176.23,174.6L4.42,174.6C2.542,174.595 1,173.048 1,171.17L1,4.42C1,2.544 2.544,1 4.42,1L248.65,1" style="fill:none;stroke-width:2px;stroke-linecap:butt;stroke-dasharray:8.08,8.08;stroke:black;"/>
            <path d="M252.69,1L256.69,1" style="fill:none;stroke-width:2px;stroke-linecap:butt;stroke:black;"/>
        </g>
        <path d="M457.47,164.58L634.81,164.58C636.456,164.58 637.81,163.226 637.81,161.58L637.81,14.11C637.81,12.464 636.456,11.11 634.81,11.11L396.34,11.11" style="fill:none;stroke-width:2px;stroke:black;"/>
        <g>
            <path d="M460.5,174.6L464.5,174.6" style="fill:none;stroke-width:2px;stroke-linecap:butt;stroke:black;"/>
            <path d="M472.57,174.6L644.39,174.6C646.266,174.6 647.81,173.056 647.81,171.18C647.81,171.177 647.81,171.173 647.81,171.17L647.81,4.42C647.81,2.544 646.266,1 644.39,1L400.16,1" style="fill:none;stroke-width:2px;stroke-linecap:butt;stroke-dasharray:8.08,8.08;stroke:black;"/>
            <path d="M396.13,1L392.13,1" style="fill:none;stroke-width:2px;stroke-linecap:butt;stroke:black;"/>
        </g>
    </g>
</svg>
