<svg xmlns="http://www.w3.org/2000/svg" width="50.13" height="61.02" viewBox="0 0 50.13 61.02"><title>drinks</title><g style="isolation:isolate"><g id="Layer_1" data-name="Layer 1"><polygon points="7.51 27.51 36.46 27.51 32.77 60.02 10.99 60.02 7.51 27.51" style="mix-blend-mode:overlay"/><polyline points="1 2.03 13.16 2.03 19.35 25.56" style="fill:none;stroke:#000;stroke-linecap:round;stroke-linejoin:round;stroke-width:2px"/><path d="M779.14,282.51a12.67,12.67,0,0,0-12.67,12.67c0,0.2,0,.39,0,0.59h4.08c0-.14,0-0.27,0-0.41a8.75,8.75,0,1,1,9.13,8.75l-0.38,3.73c6.74-.29,12.5-5.85,12.5-12.66A12.67,12.67,0,0,0,779.14,282.51Z" transform="translate(-742.88 -281.51)" style="fill:#fff"/><path d="M779.5,307.84c6.74-.29,12.5-5.85,12.5-12.66a12.67,12.67,0,1,0-25.34,0c0,0.2,0,.39,0,0.59h14Z" transform="translate(-742.88 -281.51)" style="fill:none;stroke:#000;stroke-linecap:round;stroke-linejoin:round;stroke-width:2px"/><path d="M779.88,304.11a8.75,8.75,0,1,0-9.14-8.75q0,0.2,0,.41h10.07Z" transform="translate(-742.88 -281.51)" style="mix-blend-mode:overlay"/><polyline points="18.95 14.26 37.95 14.26 32.77 60.02 21.98 60.02 11.19 60.02 6.01 14.26 13.78 14.26" style="fill:none;stroke:#000;stroke-linecap:round;stroke-linejoin:round;stroke-width:2px"/></g></g></svg>