<?xml version="1.0" standalone="no"?>
<!DOCTYPE svg PUBLIC "-//W3C//DTD SVG 1.1//EN" "http://www.w3.org/Graphics/SVG/1.1/DTD/svg11.dtd">
<svg width="100%" height="100%" viewBox="0 0 51 62" version="1.1" xmlns="http://www.w3.org/2000/svg" xmlns:xlink="http://www.w3.org/1999/xlink" xml:space="preserve" style="fill-rule:evenodd;clip-rule:evenodd;stroke-linecap:round;stroke-linejoin:round;stroke-miterlimit:1.41421;">
    <g id="Layer_1">
        <path d="M7.51,27.51L36.46,27.51L32.77,60.02L10.99,60.02L7.51,27.51Z" style="fill:black;fill-rule:nonzero;"/>
        <path d="M1,2.03L13.16,2.03L19.35,25.56" style="fill:none;stroke-width:2px;stroke:black;"/>
        <path d="M36.26,1C29.309,1 23.59,6.719 23.59,13.67C23.59,13.87 23.59,14.06 23.59,14.26L27.67,14.26C27.67,14.12 27.67,13.99 27.67,13.85C27.675,9.053 31.623,5.108 36.42,5.108C41.22,5.108 45.17,9.058 45.17,13.858C45.17,18.515 41.452,22.398 36.8,22.6L36.42,26.33C43.16,26.04 48.92,20.48 48.92,13.67C48.92,6.723 43.207,1.005 36.26,1Z" style="fill:white;fill-rule:nonzero;"/>
        <path d="M36.62,26.33C43.36,26.04 49.12,20.48 49.12,13.67C49.12,6.719 43.401,1 36.45,1C29.499,1 23.78,6.719 23.78,13.67C23.78,13.87 23.78,14.06 23.78,14.26L37.78,14.26L36.62,26.33Z" style="fill:none;stroke-width:2px;stroke:black;"/>
        <path d="M37,22.6C41.648,22.393 45.36,18.512 45.36,13.859C45.36,9.059 41.41,5.109 36.61,5.109C31.813,5.109 27.865,9.053 27.86,13.85C27.86,13.983 27.86,14.12 27.86,14.26L37.93,14.26L37,22.6Z" style="fill:black;fill-rule:nonzero;"/>
        <path d="M18.95,14.26L37.95,14.26L32.77,60.02L21.98,60.02L11.19,60.02L6.01,14.26L13.78,14.26" style="fill:none;stroke-width:2px;stroke:black;"/>
    </g>
</svg>
