<svg xmlns="http://www.w3.org/2000/svg" width="43" height="31" viewBox="0 0 43 31"><style>.a{fill:none;stroke-width:2.5px;stroke:black;}</style><path d="M41.3 5.95C41.3 3.356 39.194 1.25 36.6 1.25L5.95 1.25C3.356 1.25 1.25 3.356 1.25 5.95L1.25 24.51C1.25 27.104 3.356 29.21 5.95 29.21L36.6 29.21C39.194 29.21 41.3 27.104 41.3 24.51L41.3 5.95Z" class="a"/><path d="M39.97 2.71L39.78 2.91 25.1 17.59C24.114 18.576 22.775 19.131 21.38 19.131 19.985 19.131 18.646 18.576 17.66 17.59L2.66 2.59" class="a"/><path d="M15.28 15.28L2.67 27.89" class="a"/><path d="M39.97 27.79L39.78 27.58 27.44 15.24" class="a"/></svg>

