<svg xmlns="http://www.w3.org/2000/svg" width="24" height="38" viewBox="0 0 24 38" stroke-linejoin="round"><path d="M18.58 2.25C16.834 1.032 14.807 0.279 12.69 0.06 10.343-0.106 8 0.441 5.97 1.63 2.65 3.54-0.61 7.33 0.06 12.29 0.55 15.94 1.97 17.41 3.3 19.12 7.1 24 8.75 29.4 9.69 35.48 10.03 37.69 10.13 37.74 12.32 37.73 13.57 37.61 13.61 36.52 13.71 35.6 14.049 32.379 14.851 29.223 16.09 26.23 17.42 23.398 19.017 20.699 20.86 18.17 21.86 16.64 23.15 14.55 23.31 12.7 23.851 8.607 22.012 4.545 18.58 2.25ZM18.92 16.47C16.07 20.74 13.42 24.55 11.65 31.64 9.09 21.98 7.47 20.51 4.38 16.29 -0.06 10.23 4.84 3.1 10.7 2.52 13.837 2.118 16.955 3.453 18.83 6 21.005 9.136 21.041 13.307 18.92 16.48L18.92 16.47Z" fill="black"/><path d="M11.63 15.54C11.575 15.542 11.519 15.543 11.464 15.543 9.171 15.543 7.284 13.656 7.284 11.363 7.284 9.07 9.171 7.183 11.464 7.183 11.542 7.183 11.621 7.186 11.7 7.19 13.9 7.315 15.644 9.159 15.644 11.363 15.644 13.594 13.859 15.451 11.63 15.54Z" fill="black"/></svg>
