<svg xmlns="http://www.w3.org/2000/svg" width="38" height="38" viewBox="0 0 38 38"><style>.a{fill:black;stroke-width:0.5px;stroke:black;}</style><path d="M33.15 26.29C32.08 25.42 30.93 24.65 29.8 23.85 27.54 22.27 25.48 22.14 23.8 24.69 22.86 26.12 21.53 26.18 20.15 25.56 16.38 23.976 13.348 21.019 11.67 17.29 10.91 15.58 10.92 14.04 12.67 12.82 13.62 12.18 14.57 11.42 14.49 10.02 14.39 8.19 9.95 2.09 8.2 1.44 7.496 1.184 6.724 1.184 6.02 1.44 1.91 2.82 0.21 6.2 1.84 10.2 6.7 22.13 15.26 30.44 27.03 35.52 27.615 35.738 28.217 35.909 28.83 36.03 31.51 36.03 34.65 33.47 35.56 30.91 36.47 28.35 34.56 27.47 33.13 26.29L33.15 26.29Z" style="fill:none;stroke-width:2.5px;stroke:black"/><path d="M19.94 2.2C28.55 3.53 32.52 7.62 33.62 16.29 33.72 17.09 33.42 18.29 34.57 18.29 35.72 18.29 35.48 17.13 35.49 16.29 35.59 8.12 28.49 0.55 20.2 0.29 19.58 0.38 18.29-0.14 18.2 1.29 18.15 2.23 19.2 2.08 19.95 2.19L19.94 2.2Z" class="a"/><path d="M21.62 4.58C20.79 4.48 19.7 4.09 19.51 5.24 19.32 6.39 20.51 6.32 21.31 6.5 26.63 7.69 28.48 9.62 29.31 14.9 29.44 15.67 29.18 16.9 30.49 16.67 31.49 16.52 31.11 15.5 31.19 14.9 31.19 9.84 26.89 5.23 21.58 4.59L21.62 4.58Z" class="a"/><path d="M22.11 8.72C21.578 8.614 21.039 8.888 20.81 9.38 20.5 10.26 21.15 10.47 21.81 10.58 23.786 10.748 25.331 12.407 25.36 14.39 25.36 14.939 25.811 15.39 26.36 15.39 27.15 15.3 27.22 14.59 27.2 13.92 27.2 11.48 24.48 8.65 22.12 8.71L22.11 8.72Z" class="a"/></svg>
