<svg id="Layer_1" data-name="Layer 1" xmlns="http://www.w3.org/2000/svg" width="23.4" height="37.68" viewBox="0 0 23.4 37.68"><defs><style>.cls-1{fill-rule:evenodd;}</style></defs><title>pinpoint</title><path d="M98.89,2419.19A12.55,12.55,0,0,0,93,2417a11.67,11.67,0,0,0-6.72,1.57c-3.32,1.91-6.58,5.7-5.91,10.66,0.49,3.65,1.91,5.12,3.24,6.83,3.8,4.88,5.45,10.28,6.39,16.36,0.34,2.21.44,2.26,2.63,2.25,1.25-.12,1.29-1.21,1.39-2.13a33.71,33.71,0,0,1,2.38-9.37,49.21,49.21,0,0,1,4.77-8.06c1-1.53,2.29-3.62,2.45-5.47A10.86,10.86,0,0,0,98.89,2419.19Zm0.34,14.22c-2.85,4.27-5.5,8.08-7.27,15.17-2.56-9.66-4.18-11.13-7.27-15.35-4.44-6.06.46-13.19,6.32-13.77a8.72,8.72,0,0,1,8.13,3.48A9.31,9.31,0,0,1,99.23,2433.42Z" transform="translate(-80.31 -2416.94)"/><path class="cls-1" d="M91.94,2432.48a4.18,4.18,0,1,1,.07-8.35A4.18,4.18,0,0,1,91.94,2432.48Z" transform="translate(-80.31 -2416.94)"/></svg>