<svg xmlns="http://www.w3.org/2000/svg" width="80" height="60" viewBox="0 0 81 61"><circle cx="30.07" cy="30.06" r="29.07" style="fill:black;stroke-width:1px;stroke:black;mix-blend-mode:overlay;"/><circle cx="30.07" cy="30.06" r="29.07" style="fill:none;stroke-width:2px;stroke:black"/><circle cx="30.07" cy="30.06" r="17.34" style="fill:white;stroke-width:2px;stroke:black"/><path d="M20.35 36.65C19.05 34.717 18.356 32.44 18.356 30.11 18.356 23.681 23.646 18.39 30.076 18.39 33.042 18.39 35.901 19.517 38.07 21.54" style="fill:none;stroke-width:1px;stroke:black"/><path d="M41.69 28.59C41.751 29.076 41.782 29.564 41.782 30.054 41.782 36.489 36.487 41.784 30.052 41.784 28.737 41.784 27.431 41.563 26.19 41.13" style="fill:none;stroke-width:1px;stroke:black"/><path d="M72.96 54.54C74.122 54.496 75.157 53.781 75.61 52.71 76.61 50.63 74.51 28.02 75.11 26.71 75.38 26.16 78.27 22.91 79.11 20.89 79.898 18.749 80.118 16.441 79.75 14.19 79.42 12.45 77.39 7.44 72.99 7.36 68.59 7.44 66.55 12.45 66.23 14.19 65.864 16.441 66.084 18.749 66.87 20.89 67.73 22.89 70.62 26.16 70.87 26.71 71.47 27.98 69.36 50.58 70.37 52.71 70.794 53.768 71.801 54.485 72.94 54.54" style="fill:white;stroke-width:2px;stroke:rgb(2,2,2)"/><path d="M68.64 15.45C68.409 16.861 68.547 18.308 69.04 19.65 69.742 20.891 70.555 22.066 71.47 23.16" style="fill:white;stroke-width:1px;stroke:rgb(2,2,2)"/><path d="M74.2 23.3C75.131 22.148 75.973 20.928 76.72 19.65 77.214 18.308 77.352 16.861 77.12 15.45 76.91 14.36 75.64 11.22 72.88 11.17" style="fill:white;stroke-width:1px;stroke:rgb(2,2,2)"/></svg>
