<svg xmlns="http://www.w3.org/2000/svg" width="80.93" height="60.13" viewBox="0 0 80.93 60.13"><title>plate</title><g style="isolation:isolate"><g id="Layer_1" data-name="Layer 1"><circle cx="30.07" cy="30.06" r="29.07" style="stroke:#000;stroke-miterlimit:10;mix-blend-mode:overlay"/><circle cx="30.07" cy="30.06" r="29.07" style="fill:none;stroke:#000;stroke-miterlimit:10;stroke-width:2px"/><circle cx="30.07" cy="30.06" r="17.34" style="fill:#fff;stroke:#000;stroke-miterlimit:10;stroke-width:2px"/><path d="M181.91,319a11.72,11.72,0,0,1,17.72-15.11" transform="translate(-161.56 -282.35)" style="fill:none;stroke:#000;stroke-linecap:round;stroke-miterlimit:10"/><path d="M203.25,310.94a11.73,11.73,0,0,1-15.5,12.54" transform="translate(-161.56 -282.35)" style="fill:none;stroke:#000;stroke-linecap:round;stroke-miterlimit:10"/><path d="M234.52,336.89a3,3,0,0,0,2.65-1.83c1-2.08-1.1-24.69-.5-26,0.27-.55,3.16-3.8,4-5.82a13.22,13.22,0,0,0,.64-6.7c-0.33-1.74-2.36-6.75-6.76-6.83-4.4.08-6.44,5.09-6.76,6.83a13.26,13.26,0,0,0,.64,6.7c0.86,2,3.75,5.27,4,5.82,0.6,1.27-1.51,23.87-.5,26a2.92,2.92,0,0,0,2.57,1.83" transform="translate(-161.56 -282.35)" style="fill:#fff;stroke:#020202;stroke-miterlimit:10;stroke-width:2px"/><path d="M230.2,297.8a8.29,8.29,0,0,0,.4,4.2,23.53,23.53,0,0,0,2.43,3.51" transform="translate(-161.56 -282.35)" style="fill:#fff;stroke:#020202;stroke-linecap:round;stroke-miterlimit:10"/><path d="M235.76,305.65a29.45,29.45,0,0,0,2.52-3.65,8.27,8.27,0,0,0,.4-4.2c-0.21-1.09-1.48-4.23-4.24-4.28" transform="translate(-161.56 -282.35)" style="fill:#fff;stroke:#020202;stroke-linecap:round;stroke-miterlimit:10"/></g></g></svg>