<svg width="85" height="86" viewBox="0 0 85 86" xmlns="http://www.w3.org/2000/svg" style="mix-blend-mode:overlay;clip-rule:evenodd;fill-rule:evenodd;stroke-linejoin:round;stroke-miterlimit:1.41421;version:1.1"  class="clickable hover" onclick="location.href='whatsapp://send?text=3336210814'"><path d="M62.59 51.01C61.59 50.44 56.43 47.68 55.47 47.29 54.51 46.9 53.81 46.7 53.06 47.73 52.31 48.76 50.19 51.08 49.55 51.73 48.91 52.38 48.28 52.48 47.24 51.91 44.16 50.548 41.342 48.659 38.91 46.33 36.672 44.099 34.778 41.548 33.29 38.76 33.139 38.517 33.06 38.236 33.06 37.95 33.06 37.396 33.358 36.883 33.84 36.61 34.33 36.15 34.95 35.41 35.5 34.81 35.953 34.289 36.33 33.707 36.62 33.08 36.936 32.501 36.936 31.799 36.62 31.22 36.38 30.68 34.45 25.38 33.62 23.22 32.79 21.06 31.92 21.38 31.3 21.36 30.68 21.34 29.98 21.22 29.3 21.19 28.212 21.177 27.167 21.62 26.42 22.41 23.925 24.622 22.472 27.786 22.42 31.12 22.23 36.34 25.84 41.53 26.34 42.25 26.84 42.97 33.23 54.25 43.86 58.95 54.49 63.65 54.54 62.18 56.49 62.08 58.44 61.98 62.86 59.74 63.84 57.3 64.82 54.86 64.89 52.73 64.65 52.3 64.09 51.719 63.406 51.271 62.65 50.99L62.59 51.01ZM43.1 0.01C20.306 0.017 1.553 18.776 1.553 41.57 1.553 49.125 3.613 56.538 7.51 63.01L0 85.31 23 77.94C29.152 81.338 36.066 83.12 43.093 83.12 65.892 83.12 84.653 64.359 84.653 41.56 84.653 18.782 65.928 0.031 43.15 0L43.1 0.01Z" fill="black"/></svg>


