<svg xmlns="http://www.w3.org/2000/svg" width="100%" height="100%" viewBox="0 0 86 86" stroke-linejoin="round" class="hover desktop" style="mix-blend-mode:overlay;"><path d="M42.8 0C19.3 0 0 19.3 0 42.8 0 66.2 19.3 85.5 42.8 85.5 66.2 85.5 85.5 66.2 85.5 42.8 85.5 19.3 66.2 0 42.8 0ZM53.6 42.8L46.5 42.8 46.5 68 36 68 36 42.8 31 42.8 31 33.8 36 33.8 36 28.1C36 23.9 38 17.5 46.6 17.5L54.4 17.5 54.4 26.1 48.7 26.1C48.7 26.1 48.7 26.1 48.6 26.1 47.4 26.1 46.5 27.1 46.5 28.3 46.5 28.4 46.5 28.5 46.5 28.6L46.5 33.8 54.5 33.8 53.6 42.8Z" fill="black"/></svg>
