<svg width="86" height="86" viewBox="0 0 86 86" xmlns="http://www.w3.org/2000/svg" stroke-linejoin="round" style="mix-blend-mode:overlay;" class="clickable" onclick="location.href='https://telegram.me/3336210814'"><path d="M42.8 0C19.3 0 0 19.3 0 42.8 0 66.2 19.3 85.5 42.8 85.5 66.2 85.5 85.5 66.2 85.5 42.8 85.5 19.3 66.2 0 42.8 0L42.8 0ZM27.9 62C27.8 62 27.2 47.9 27.2 47.9 27.2 47.9 27 46.4 28.9 45.4 33.6 43 40.7 39.3 45.6 37.1 45.3 37.4 35.4 44.4 32.2 46.8 31 47.5 30.2 48.7 30 50 29.7 52.1 28.3 59.9 27.9 62ZM29.9 64.2C30.4 61.4 32.1 54.1 32.6 51.5 34 52.8 35.9 54.5 37.2 55.8 34.7 58.6 31.8 62.1 29.9 64.2L29.9 64.2ZM54.4 64.1C54.4 64.1 52.8 67.2 50.4 65 45 59.8 33.9 49.2 33.9 49.2L44.4 41.2 50.1 36.6C50.1 36.6 52 34.8 51.2 33.8 50.5 32.9 48.7 33.8 48.7 33.8L27.1 43.6C27.1 43.6 26.2 44 24.1 43.1 22.6 42.5 11.4 38.9 11.8 37.9 12.3 36.9 67.4 22.8 67.4 22.8L54.4 64.1Z" fill="black"/></svg>
